<mxfile>
    <diagram id="Vkf1kccMHPyQg5MPIpvl" name="Page-1">
        <mxGraphModel dx="820" dy="500" grid="1" gridSize="10" guides="1" tooltips="1" connect="1" arrows="1" fold="1" page="1" pageScale="1" pageWidth="827" pageHeight="1169" math="0" shadow="0">
            <root>
                <mxCell id="0"/>
                <mxCell id="1" parent="0"/>
                <mxCell id="2" value="&lt;p style=&quot;margin: 0px ; margin-top: 4px ; text-align: center&quot;&gt;&lt;i&gt;&amp;lt;&amp;lt;Interface&amp;gt;&amp;gt;&lt;/i&gt;&lt;br&gt;&lt;b&gt;&lt;font style=&quot;font-size: 14px&quot;&gt;&amp;nbsp;State&amp;nbsp;&lt;/font&gt;&lt;/b&gt;&lt;br&gt;&lt;/p&gt;&lt;hr size=&quot;1&quot;&gt;&lt;p style=&quot;margin: 0px ; margin-left: 4px&quot;&gt;&lt;br&gt;&lt;/p&gt;&lt;hr size=&quot;1&quot;&gt;&lt;p style=&quot;margin: 0px 0px 0px 4px ; font-size: 13px&quot;&gt;+&amp;nbsp;isAuthorized(context: Context): boolean&amp;nbsp;&lt;br&gt;+&amp;nbsp;&amp;nbsp;getUserId(context: Context): string&lt;/p&gt;" style="verticalAlign=top;align=left;overflow=fill;fontSize=12;fontFamily=Helvetica;html=1;" vertex="1" parent="1">
                    <mxGeometry x="390" y="40" width="260" height="140" as="geometry"/>
                </mxCell>
                <mxCell id="4" value="&lt;p style=&quot;margin: 4px 0px 0px ; text-align: center ; font-size: 14px&quot;&gt;&lt;font style=&quot;font-size: 14px&quot;&gt;&lt;b&gt;&amp;nbsp;Context&lt;/b&gt;&lt;br&gt;&lt;/font&gt;&lt;/p&gt;&lt;hr size=&quot;1&quot; style=&quot;font-size: 14px&quot;&gt;&lt;p style=&quot;margin: 0px 0px 0px 4px ; font-size: 13px&quot;&gt;&lt;font style=&quot;font-size: 13px&quot;&gt;+&amp;nbsp;state: State&lt;/font&gt;&lt;/p&gt;&lt;hr size=&quot;1&quot; style=&quot;font-size: 13px&quot;&gt;&lt;p style=&quot;margin: 0px 0px 0px 4px ; font-size: 13px&quot;&gt;&lt;font style=&quot;font-size: 13px&quot;&gt;+&amp;nbsp;isAuthorized(): boolean&lt;/font&gt;&lt;/p&gt;&lt;p style=&quot;margin: 0px 0px 0px 4px ; font-size: 13px&quot;&gt;&lt;font style=&quot;font-size: 13px&quot;&gt;+&amp;nbsp;userId(): string&lt;/font&gt;&lt;/p&gt;&lt;p style=&quot;margin: 0px 0px 0px 4px ; font-size: 13px&quot;&gt;&lt;font style=&quot;font-size: 13px&quot;&gt;+&amp;nbsp;changeStateToAuthorized(userId: string)&lt;/font&gt;&lt;/p&gt;&lt;p style=&quot;margin: 0px 0px 0px 4px ; font-size: 13px&quot;&gt;&lt;font style=&quot;font-size: 13px&quot;&gt;+changeStateToUnauthorized()&lt;/font&gt;&lt;/p&gt;&lt;p style=&quot;margin: 0px 0px 0px 4px ; font-size: 13px&quot;&gt;&lt;font style=&quot;font-size: 13px&quot;&gt;+ printAuthorizationStatus() : void&lt;/font&gt;&lt;/p&gt;" style="verticalAlign=top;align=left;overflow=fill;fontSize=12;fontFamily=Helvetica;html=1;" vertex="1" parent="1">
                    <mxGeometry x="40" y="40" width="240" height="140" as="geometry"/>
                </mxCell>
                <mxCell id="5" value="&lt;p style=&quot;margin: 0px ; margin-top: 4px ; text-align: center&quot;&gt;&lt;b&gt;&lt;font style=&quot;font-size: 14px&quot;&gt;&amp;nbsp;&lt;/font&gt;&lt;/b&gt;&lt;b style=&quot;font-size: 14px&quot;&gt;AuthorizedState&lt;/b&gt;&lt;/p&gt;&lt;hr size=&quot;1&quot;&gt;&lt;p style=&quot;margin: 0px ; margin-left: 4px&quot;&gt;&amp;nbsp;-&amp;nbsp;&lt;/p&gt;&lt;hr size=&quot;1&quot;&gt;&lt;p style=&quot;margin: 0px 0px 0px 4px ; font-size: 13px&quot;&gt;+&amp;nbsp;isAuthorized(context: Context): boolean&amp;nbsp;&lt;br&gt;+&amp;nbsp;&amp;nbsp;getUserId(context: Context): string&lt;/p&gt;" style="verticalAlign=top;align=left;overflow=fill;fontSize=12;fontFamily=Helvetica;html=1;" vertex="1" parent="1">
                    <mxGeometry x="240" y="240" width="260" height="110" as="geometry"/>
                </mxCell>
                <mxCell id="6" value="&lt;div style=&quot;text-align: center&quot;&gt;&lt;span style=&quot;font-size: 14px&quot;&gt;&lt;b&gt;UnauthorizedState&lt;/b&gt;&lt;/span&gt;&lt;b&gt;&lt;font style=&quot;font-size: 14px&quot;&gt;&amp;nbsp;&lt;/font&gt;&lt;/b&gt;&lt;/div&gt;&lt;hr size=&quot;1&quot;&gt;&lt;p style=&quot;margin: 0px ; margin-left: 4px&quot;&gt;&lt;br&gt;&lt;/p&gt;&lt;hr size=&quot;1&quot;&gt;&lt;p style=&quot;margin: 0px 0px 0px 4px ; font-size: 13px&quot;&gt;+&amp;nbsp;isAuthorized(context: Context): boolean&amp;nbsp;&lt;br&gt;+&amp;nbsp;&amp;nbsp;getUserId(context: Context): string&lt;/p&gt;" style="verticalAlign=top;align=left;overflow=fill;fontSize=12;fontFamily=Helvetica;html=1;" vertex="1" parent="1">
                    <mxGeometry x="540" y="240" width="260" height="110" as="geometry"/>
                </mxCell>
                <mxCell id="7" value="" style="endArrow=block;startArrow=none;endFill=0;startFill=0;endSize=8;html=1;verticalAlign=bottom;dashed=1;labelBackgroundColor=none;exitX=0.615;exitY=0;exitDx=0;exitDy=0;exitPerimeter=0;entryX=0.25;entryY=1;entryDx=0;entryDy=0;" edge="1" parent="1" source="5" target="2">
                    <mxGeometry width="160" relative="1" as="geometry">
                        <mxPoint x="410" y="220" as="sourcePoint"/>
                        <mxPoint x="570" y="220" as="targetPoint"/>
                    </mxGeometry>
                </mxCell>
                <mxCell id="8" value="" style="endArrow=block;startArrow=none;endFill=0;startFill=0;endSize=8;html=1;verticalAlign=bottom;dashed=1;labelBackgroundColor=none;exitX=0.227;exitY=-0.018;exitDx=0;exitDy=0;exitPerimeter=0;entryX=0.75;entryY=1;entryDx=0;entryDy=0;" edge="1" parent="1" source="6" target="2">
                    <mxGeometry width="160" relative="1" as="geometry">
                        <mxPoint x="560" y="210" as="sourcePoint"/>
                        <mxPoint x="720" y="210" as="targetPoint"/>
                    </mxGeometry>
                </mxCell>
                <mxCell id="10" value="" style="endArrow=open;html=1;endSize=12;startArrow=diamondThin;startSize=14;startFill=1;edgeStyle=orthogonalEdgeStyle;align=left;verticalAlign=bottom;" edge="1" parent="1">
                    <mxGeometry x="-0.5" y="30" relative="1" as="geometry">
                        <mxPoint x="280" y="60" as="sourcePoint"/>
                        <mxPoint x="390" y="60" as="targetPoint"/>
                        <mxPoint as="offset"/>
                    </mxGeometry>
                </mxCell>
            </root>
        </mxGraphModel>
    </diagram>
</mxfile>